# xmcd
#
# Track frame offsets:
#	150
#	19566
#	40036
#	59317
#	77375
#	94469
#	116318
#	131822
#	154042
#	169164
#	189142
#
# Disc length: 2799 seconds
#
# Revision: 1
# Processed by: cddbd v1.5.2PL0 Copyright (c) Steve Scherf et al.
# Submitted via: audiograbber 1.83.01
#
DISCID=7c0aed0b
DTITLE=John Corbett - John Corbett
DYEAR=1900
DGENRE=Country
TTITLE0=Bottle Of Whiskey
TTITLE1=Good To Go
TTITLE2=Revival
TTITLE3=Wichita
TTITLE4=Cash
TTITLE5=Simple Man
TTITLE6=Back Door To My Heart
TTITLE7=Best Move
TTITLE8=Waiting On A Heartache
TTITLE9=Judge A Man
TTITLE10=Last Stand
EXTD=
EXTT0=
EXTT1=
EXTT2=
EXTT3=
EXTT4=
EXTT5=
EXTT6=
EXTT7=
EXTT8=
EXTT9=
EXTT10=
PLAYORDER=
